<svg version="1.1" xmlns="http://www.w3.org/2000/svg" xmlns:xlink="http://www.w3.org/1999/xlink" viewBox="0 0 172 172"><defs><linearGradient x1="58.46567" y1="26.03292" x2="102.04617" y2="120.94467" gradientUnits="userSpaceOnUse" id="color-1"><stop offset="0" stop-color="#fa9854"></stop><stop offset="0.587" stop-color="#f6651a"></stop><stop offset="1" stop-color="#ff9535"></stop></linearGradient><linearGradient x1="86.03218" y1="94.00651" x2="86.0312" y2="150.16564" gradientUnits="userSpaceOnUse" id="color-2"><stop offset="0" stop-color="#e67e22"></stop><stop offset="0.005" stop-color="#e67e22"></stop><stop offset="0.053" stop-color="#e67e22"></stop><stop offset="0.103" stop-color="#e67e22"></stop><stop offset="0.156" stop-color="#e67e22"></stop><stop offset="0.213" stop-color="#fc7c0c"></stop><stop offset="0.282" stop-color="#ff8d2c"></stop></linearGradient></defs><g fill="none" fill-rule="nonzero" stroke="none" stroke-width="1" stroke-linecap="butt" stroke-linejoin="miter" stroke-miterlimit="10" stroke-dasharray="" stroke-dashoffset="0" font-family="none" font-weight="none" font-size="none" text-anchor="none" style="mix-blend-mode: normal"><path d="M0,172v-172h172v172z" fill="none"></path><g><path d="M146.91667,71.66667h-46.58333v-46.58333c0,-3.95958 -3.20708,-7.16667 -7.16667,-7.16667h-14.33333c-3.95958,0 -7.16667,3.20708 -7.16667,7.16667v46.58333h-46.58333c-3.95958,0 -7.16667,3.20708 -7.16667,7.16667v14.33333c0,3.95958 3.20708,7.16667 7.16667,7.16667h121.83333c3.95958,0 7.16667,-3.20708 7.16667,-7.16667v-14.33333c0,-3.95958 -3.20708,-7.16667 -7.16667,-7.16667z" fill="url(#color-1)"></path><path d="M100.33333,100.33333h-28.66667v46.58333c0,3.95958 3.20708,7.16667 7.16667,7.16667h14.33333c3.95958,0 7.16667,-3.20708 7.16667,-7.16667z" fill="url(#color-2)"></path></g></g></svg>