<svg version="1.1" xmlns="http://www.w3.org/2000/svg" xmlns:xlink="http://www.w3.org/1999/xlink" viewBox="0 0 172 172"><g fill="none" fill-rule="nonzero" stroke="none" stroke-width="1" stroke-linecap="butt" stroke-linejoin="miter" stroke-miterlimit="10" stroke-dasharray="" stroke-dashoffset="0" font-family="none" font-weight="none" font-size="none" text-anchor="none" style="mix-blend-mode: normal"><path d="M0,172v-172h172v172z" fill="none"></path><g><path d="M128.53775,84.33733l-32.41483,-56.3515c-0.89942,-1.71642 -2.67675,-2.9025 -4.74792,-2.9025h-37.625c-1.978,0 -3.58333,1.60533 -3.58333,3.58333c0,0.65575 0.22575,1.23983 0.53392,1.77017l33.26408,55.56317h45.03533c0,-0.61275 -0.1935,-1.161 -0.46225,-1.66267z" fill="#f88b13"></path><path d="M128.53775,87.66267l-32.41483,56.3515c-0.89942,1.71642 -2.67675,2.9025 -4.74792,2.9025h-37.625c-1.978,0 -3.58333,-1.60533 -3.58333,-3.58333c0,-0.65575 0.22575,-1.23983 0.53392,-1.77017l33.26408,-55.56317h45.03533c0,0.61275 -0.1935,1.161 -0.46225,1.66267z" fill="#e67e22"></path></g></g></svg>