<svg version="1.1" xmlns="http://www.w3.org/2000/svg" xmlns:xlink="http://www.w3.org/1999/xlink" viewBox="0 0 172 172"><g fill="none" fill-rule="nonzero" stroke="none" stroke-width="1" stroke-linecap="butt" stroke-linejoin="miter" stroke-miterlimit="10" stroke-dasharray="" stroke-dashoffset="0" font-family="none" font-weight="none" font-size="none" text-anchor="none" style="mix-blend-mode: normal"><path d="M0,172v-172h172v172z" fill="none"></path><g><path d="M46.58333,86h45.03533l33.26408,-55.56317c0.30817,-0.53033 0.53392,-1.11442 0.53392,-1.77017c0,-1.978 -1.60533,-3.58333 -3.58333,-3.58333h-37.625c-2.07117,0 -3.8485,1.18608 -4.74792,2.9025l-32.41483,56.3515c-0.26875,0.50167 -0.46225,1.04992 -0.46225,1.66267z" fill="#f68b13"></path><path d="M46.58333,86h45.03533l33.26408,55.56317c0.30817,0.53033 0.53392,1.11442 0.53392,1.77017c0,1.978 -1.60533,3.58333 -3.58333,3.58333h-37.625c-2.07117,0 -3.8485,-1.18608 -4.74792,-2.9025l-32.41483,-56.3515c-0.26875,-0.50167 -0.46225,-1.04992 -0.46225,-1.66267z" fill="#f67e22"></path></g></g></svg>